<?xml version="1.0" encoding="utf-8"?><!-- Uploaded to: SVG Repo, www.svgrepo.com, Generator: SVG Repo Mixer Tools -->
<svg version="1.1" id="Uploaded to svgrepo.com" xmlns="http://www.w3.org/2000/svg" xmlns:xlink="http://www.w3.org/1999/xlink" 
	 width="50px" height="50px" viewBox="0 0 32 32" xml:space="preserve">
<style type="text/css">
	.linesandangles_een{fill:#ffffff;}
</style>
<path class="linesandangles_een" d="M28,11c0-3.314-2.686-6-6-6c-0.173,0-0.344,0.012-0.513,0.026C20.388,3.786,18.787,3,17,3
	s-3.388,0.786-4.487,2.026C12.344,5.012,12.173,5,12,5c-3.314,0-6,2.686-6,6c0,0.893,0.201,1.738,0.551,2.5
	C6.201,14.262,6,15.107,6,16c0,2.403,1.416,4.47,3.455,5.428C9.172,21.886,9,22.421,9,23c-1.657,0-3,1.343-3,3s1.343,3,3,3
	s3-1.343,3-3c1.442,0,2.645-1.018,2.933-2.375C15.578,23.864,16.272,24,17,24c1.787,0,3.388-0.786,4.487-2.026
	C21.656,21.988,21.827,22,22,22c3.314,0,6-2.686,6-6c0-0.893-0.201-1.738-0.551-2.5C27.799,12.738,28,11.893,28,11z M9,27
	c-0.551,0-1-0.449-1-1s0.449-1,1-1s1,0.449,1,1S9.551,27,9,27z M12,24c-0.551,0-1-0.449-1-1s0.449-1,1-1s1,0.449,1,1
	S12.551,24,12,24z M25.632,14.335C25.876,14.867,26,15.427,26,16c0,2.206-1.794,4-4,4c-0.116,0-0.23-0.009-0.344-0.019l-1-0.085
	l-0.666,0.751C19.228,21.507,18.138,22,17,22s-2.228-0.493-2.99-1.353l-0.666-0.751l-1,0.085C12.23,19.991,12.116,20,12,20
	c-2.206,0-4-1.794-4-4c0-0.573,0.124-1.133,0.368-1.665L8.752,13.5l-0.384-0.835C8.124,12.133,8,11.573,8,11c0-2.206,1.794-4,4-4
	c0.116,0,0.23,0.009,0.344,0.019l1,0.085l0.666-0.751C14.772,5.493,15.862,5,17,5c1.138,0,2.228,0.493,2.99,1.353l0.666,0.751
	l1-0.085C21.77,7.009,21.884,7,22,7c2.206,0,4,1.794,4,4c0,0.573-0.124,1.133-0.368,1.665L25.248,13.5L25.632,14.335z"/>
</svg>